<?xml version="1.0" encoding="UTF-8" standalone="no"?>
<!DOCTYPE svg PUBLIC "-//W3C//DTD SVG 1.1//EN"
 "http://www.w3.org/Graphics/SVG/1.1/DTD/svg11.dtd">
<!-- Generated by graphviz version 2.43.0 (0)
 -->
<!-- Title: %3 Pages: 1 -->
<svg width="475pt" height="1052pt"
 viewBox="0.00 0.00 475.13 1052.00" xmlns="http://www.w3.org/2000/svg" xmlns:xlink="http://www.w3.org/1999/xlink">
<g id="graph0" class="graph" transform="scale(1 1) rotate(0) translate(4 1048)">
<title>%3</title>
<polygon fill="white" stroke="transparent" points="-4,4 -4,-1048 471.13,-1048 471.13,4 -4,4"/>
<g id="clust1" class="cluster">
<title>cluster_/SYSTEM_LAUNCH</title>
<polygon fill="none" stroke="transparent" points="23,-8 23,-1036 459,-1036 459,-8 23,-8"/>
</g>
<g id="clust2" class="cluster">
<title>cluster_/SYSTEM_LAUNCH/__outcomes__</title>
<path fill="transparent" stroke="#ffffff" d="M104,-16C104,-16 150,-16 150,-16 156,-16 162,-22 162,-28 162,-28 162,-42 162,-42 162,-48 156,-54 150,-54 150,-54 104,-54 104,-54 98,-54 92,-48 92,-42 92,-42 92,-28 92,-28 92,-22 98,-16 104,-16"/>
</g>
<!-- /SYSTEM_LAUNCH/__proxy__ -->
<g id="node1" class="node">
<title>/SYSTEM_LAUNCH/__proxy__</title>
<g id="a_node1"><a xlink:href="/SYSTEM_LAUNCH" xlink:title="SYSTEM_LAUNCH">
<text text-anchor="middle" x="131" y="-1009.6" font-family="Times,serif" font-size="18.00">SYSTEM_LAUNCH</text>
</a>
</g>
</g>
<!-- /SYSTEM_LAUNCH/INITIALIZATION -->
<g id="node3" class="node">
<title>/SYSTEM_LAUNCH/INITIALIZATION</title>
<g id="a_node3"><a xlink:href="/SYSTEM_LAUNCH/INITIALIZATION" xlink:title="INITIALIZATION">
<ellipse fill="#ffffff" stroke="#000000" stroke-width="2" cx="131" cy="-928" rx="77.19" ry="18"/>
<text text-anchor="middle" x="131" y="-924.3" font-family="Times,serif" font-size="14.00">INITIALIZATION</text>
</a>
</g>
</g>
<!-- /SYSTEM_LAUNCH/__proxy__&#45;&gt;/SYSTEM_LAUNCH/INITIALIZATION -->
<g id="edge24" class="edge">
<title>/SYSTEM_LAUNCH/__proxy__&#45;&gt;/SYSTEM_LAUNCH/INITIALIZATION</title>
<g id="a_edge24"><a xlink:href="/SYSTEM_LAUNCH/__proxy__::/SYSTEM_LAUNCH/INITIALIZATION">
<path fill="none" stroke="black" stroke-width="2" d="M131,-999.88C131,-988.22 131,-970.8 131,-956.16"/>
<polygon fill="black" stroke="black" stroke-width="2" points="134.5,-956.1 131,-946.1 127.5,-956.1 134.5,-956.1"/>
</a>
</g>
</g>
<!-- /SYSTEM_LAUNCH:failed -->
<g id="node2" class="node">
<title>/SYSTEM_LAUNCH:failed</title>
<g id="a_node2"><a xlink:href="/SYSTEM_LAUNCH:failed">
<path fill="#fe464f" stroke="#780006" d="M146.67,-46C146.67,-46 107.33,-46 107.33,-46 103.67,-46 100,-42.33 100,-38.67 100,-38.67 100,-31.33 100,-31.33 100,-27.67 103.67,-24 107.33,-24 107.33,-24 146.67,-24 146.67,-24 150.33,-24 154,-27.67 154,-31.33 154,-31.33 154,-38.67 154,-38.67 154,-42.33 150.33,-46 146.67,-46"/>
</a>
</g>
<text text-anchor="middle" x="86.5" y="-49.4" font-family="Times,serif" font-size="12.00" fill="#780006">failed</text>
</g>
<!-- /SYSTEM_LAUNCH/ESTOP -->
<g id="node4" class="node">
<title>/SYSTEM_LAUNCH/ESTOP</title>
<g id="a_node4"><a xlink:href="/SYSTEM_LAUNCH/ESTOP" xlink:title="ESTOP">
<ellipse fill="#ffffff" stroke="#000000" stroke-width="2" cx="127" cy="-118" rx="37.89" ry="18"/>
<text text-anchor="middle" x="127" y="-114.3" font-family="Times,serif" font-size="14.00">ESTOP</text>
</a>
</g>
</g>
<!-- /SYSTEM_LAUNCH/INITIALIZATION&#45;&gt;/SYSTEM_LAUNCH/ESTOP -->
<g id="edge2" class="edge">
<title>/SYSTEM_LAUNCH/INITIALIZATION&#45;&gt;/SYSTEM_LAUNCH/ESTOP</title>
<g id="a_edge2"><a xlink:href="/SYSTEM_LAUNCH/INITIALIZATION:failed:/SYSTEM_LAUNCH/ESTOP">
<path fill="none" stroke="black" stroke-width="2" d="M113.76,-910.07C85.39,-880.31 32,-815.48 32,-749 32,-749 32,-749 32,-297 32,-235.32 76.94,-174.28 105,-142.18"/>
<polygon fill="black" stroke="black" stroke-width="2" points="107.67,-144.44 111.74,-134.66 102.46,-139.78 107.67,-144.44"/>
</a>
</g>
<g id="a_edge2&#45;label"><a xlink:href="/SYSTEM_LAUNCH/INITIALIZATION:failed:/SYSTEM_LAUNCH/ESTOP">
<text text-anchor="middle" x="18.5" y="-300.4" font-family="Times,serif" font-size="12.00">failed</text>
</a>
</g>
</g>
<!-- /SYSTEM_LAUNCH/MAPPING -->
<g id="node5" class="node">
<title>/SYSTEM_LAUNCH/MAPPING</title>
<g id="a_node5"><a xlink:href="/SYSTEM_LAUNCH/MAPPING" xlink:title="MAPPING">
<ellipse fill="#ffffff" stroke="#000000" stroke-width="2" cx="172" cy="-838" rx="50.89" ry="18"/>
<text text-anchor="middle" x="172" y="-834.3" font-family="Times,serif" font-size="14.00">MAPPING</text>
</a>
</g>
</g>
<!-- /SYSTEM_LAUNCH/INITIALIZATION&#45;&gt;/SYSTEM_LAUNCH/MAPPING -->
<g id="edge1" class="edge">
<title>/SYSTEM_LAUNCH/INITIALIZATION&#45;&gt;/SYSTEM_LAUNCH/MAPPING</title>
<g id="a_edge1"><a xlink:href="/SYSTEM_LAUNCH/INITIALIZATION:success:/SYSTEM_LAUNCH/MAPPING">
<path fill="none" stroke="black" stroke-width="2" d="M138.91,-910.03C144.8,-897.37 152.97,-879.84 159.72,-865.35"/>
<polygon fill="black" stroke="black" stroke-width="2" points="163.07,-866.46 164.12,-855.92 156.72,-863.5 163.07,-866.46"/>
</a>
</g>
<g id="a_edge1&#45;label"><a xlink:href="/SYSTEM_LAUNCH/INITIALIZATION:success:/SYSTEM_LAUNCH/MAPPING">
<text text-anchor="middle" x="133.38" y="-886.65" font-family="Times,serif" font-size="12.00">success</text>
</a>
</g>
</g>
<!-- /SYSTEM_LAUNCH/ESTOP&#45;&gt;/SYSTEM_LAUNCH:failed -->
<g id="edge3" class="edge">
<title>/SYSTEM_LAUNCH/ESTOP&#45;&gt;/SYSTEM_LAUNCH:failed</title>
<g id="a_edge3"><a xlink:href="/SYSTEM_LAUNCH/ESTOP:triggered:/SYSTEM_LAUNCH/failed">
<path fill="none" stroke="#000000" stroke-width="2" stroke-opacity="0.333333" d="M127,-99.82C127,-87.05 127,-69.59 127,-56.16"/>
<polygon fill="#000000" fill-opacity="0.333333" stroke="#000000" stroke-width="2" stroke-opacity="0.333333" points="130.5,-56.01 127,-46.01 123.5,-56.01 130.5,-56.01"/>
</a>
</g>
<g id="a_edge3&#45;label"><a xlink:href="/SYSTEM_LAUNCH/ESTOP:triggered:/SYSTEM_LAUNCH/failed">
<text text-anchor="middle" x="105.5" y="-76.62" font-family="Times,serif" font-size="12.00">triggered</text>
</a>
</g>
</g>
<!-- /SYSTEM_LAUNCH/MAPPING&#45;&gt;/SYSTEM_LAUNCH/MAPPING -->
<g id="edge5" class="edge">
<title>/SYSTEM_LAUNCH/MAPPING&#45;&gt;/SYSTEM_LAUNCH/MAPPING</title>
<g id="a_edge5"><a xlink:href="/SYSTEM_LAUNCH/MAPPING:threshold_not_reached:/SYSTEM_LAUNCH/MAPPING">
<path fill="none" stroke="black" stroke-width="2" d="M203.56,-852.2C230.44,-858.46 258.7,-853.73 258.7,-838 258.7,-824.23 237.06,-818.89 213.65,-821.97"/>
<polygon fill="black" stroke="black" stroke-width="2" points="212.77,-818.57 203.56,-823.8 214.03,-825.46 212.77,-818.57"/>
</a>
</g>
<g id="a_edge5&#45;label"><a xlink:href="/SYSTEM_LAUNCH/MAPPING:threshold_not_reached:/SYSTEM_LAUNCH/MAPPING">
<text text-anchor="middle" x="257.6" y="-855.61" font-family="Times,serif" font-size="12.00">threshold_not_reached</text>
</a>
</g>
</g>
<!-- /SYSTEM_LAUNCH/IDLE -->
<g id="node6" class="node">
<title>/SYSTEM_LAUNCH/IDLE</title>
<g id="a_node6"><a xlink:href="/SYSTEM_LAUNCH/IDLE" xlink:title="IDLE">
<ellipse fill="#ffffff" stroke="#000000" stroke-width="2" cx="213" cy="-748" rx="30.59" ry="18"/>
<text text-anchor="middle" x="213" y="-744.3" font-family="Times,serif" font-size="14.00">IDLE</text>
</a>
</g>
</g>
<!-- /SYSTEM_LAUNCH/MAPPING&#45;&gt;/SYSTEM_LAUNCH/IDLE -->
<g id="edge4" class="edge">
<title>/SYSTEM_LAUNCH/MAPPING&#45;&gt;/SYSTEM_LAUNCH/IDLE</title>
<g id="a_edge4"><a xlink:href="/SYSTEM_LAUNCH/MAPPING:done:/SYSTEM_LAUNCH/IDLE">
<path fill="none" stroke="black" stroke-width="2" d="M179.91,-820.03C185.84,-807.29 194.08,-789.61 200.85,-775.08"/>
<polygon fill="black" stroke="black" stroke-width="2" points="204.21,-776.16 205.26,-765.62 197.86,-773.2 204.21,-776.16"/>
</a>
</g>
<g id="a_edge4&#45;label"><a xlink:href="/SYSTEM_LAUNCH/MAPPING:done:/SYSTEM_LAUNCH/IDLE">
<text text-anchor="middle" x="180.47" y="-796.47" font-family="Times,serif" font-size="12.00">done</text>
</a>
</g>
</g>
<!-- /SYSTEM_LAUNCH/IDLE&#45;&gt;/SYSTEM_LAUNCH/IDLE -->
<g id="edge8" class="edge">
<title>/SYSTEM_LAUNCH/IDLE&#45;&gt;/SYSTEM_LAUNCH/IDLE</title>
<g id="a_edge8"><a xlink:href="/SYSTEM_LAUNCH/IDLE:no_request:/SYSTEM_LAUNCH/IDLE">
<path fill="none" stroke="black" stroke-width="2" d="M234.12,-761.17C255.62,-768.91 279.55,-764.52 279.55,-748 279.55,-733.93 262.2,-728.66 243.77,-732.19"/>
<polygon fill="black" stroke="black" stroke-width="2" points="242.84,-728.81 234.12,-734.83 244.69,-735.56 242.84,-728.81"/>
</a>
</g>
<g id="a_edge8&#45;label"><a xlink:href="/SYSTEM_LAUNCH/IDLE:no_request:/SYSTEM_LAUNCH/IDLE">
<text text-anchor="middle" x="260.16" y="-764.58" font-family="Times,serif" font-size="12.00">no_request</text>
</a>
</g>
</g>
<!-- /SYSTEM_LAUNCH/CONVERSATION -->
<g id="node7" class="node">
<title>/SYSTEM_LAUNCH/CONVERSATION</title>
<g id="a_node7"><a xlink:href="/SYSTEM_LAUNCH/CONVERSATION" xlink:title="CONVERSATION">
<ellipse fill="#c0f700" stroke="#5c7600" stroke-width="5" cx="147" cy="-658" rx="77.99" ry="18"/>
<text text-anchor="middle" x="147" y="-654.3" font-family="Times,serif" font-size="14.00">CONVERSATION</text>
</a>
</g>
</g>
<!-- /SYSTEM_LAUNCH/IDLE&#45;&gt;/SYSTEM_LAUNCH/CONVERSATION -->
<g id="edge6" class="edge">
<title>/SYSTEM_LAUNCH/IDLE&#45;&gt;/SYSTEM_LAUNCH/CONVERSATION</title>
<g id="a_edge6"><a xlink:href="/SYSTEM_LAUNCH/IDLE:request_speech:/SYSTEM_LAUNCH/CONVERSATION">
<path fill="none" stroke="black" stroke-width="2" d="M201.2,-731.27C191.31,-718.09 177.03,-699.04 165.6,-683.8"/>
<polygon fill="black" stroke="black" stroke-width="2" points="168.4,-681.69 159.6,-675.79 162.8,-685.89 168.4,-681.69"/>
</a>
</g>
<g id="a_edge6&#45;label"><a xlink:href="/SYSTEM_LAUNCH/IDLE:request_speech:/SYSTEM_LAUNCH/CONVERSATION">
<text text-anchor="middle" x="143.96" y="-707.01" font-family="Times,serif" font-size="12.00">request_speech</text>
</a>
</g>
</g>
<!-- /SYSTEM_LAUNCH/APPROACH_ITEM -->
<g id="node8" class="node">
<title>/SYSTEM_LAUNCH/APPROACH_ITEM</title>
<g id="a_node8"><a xlink:href="/SYSTEM_LAUNCH/APPROACH_ITEM" xlink:title="APPROACH_ITEM">
<ellipse fill="#ffffff" stroke="#000000" stroke-width="2" cx="241" cy="-568" rx="83.69" ry="18"/>
<text text-anchor="middle" x="241" y="-564.3" font-family="Times,serif" font-size="14.00">APPROACH_ITEM</text>
</a>
</g>
</g>
<!-- /SYSTEM_LAUNCH/IDLE&#45;&gt;/SYSTEM_LAUNCH/APPROACH_ITEM -->
<g id="edge7" class="edge">
<title>/SYSTEM_LAUNCH/IDLE&#45;&gt;/SYSTEM_LAUNCH/APPROACH_ITEM</title>
<g id="a_edge7"><a xlink:href="/SYSTEM_LAUNCH/IDLE:request_text:/SYSTEM_LAUNCH/APPROACH_ITEM">
<path fill="none" stroke="black" stroke-width="2" d="M227.28,-731.81C238.9,-718.32 254.42,-697.48 261,-676 269.26,-649.05 261.1,-617.18 252.86,-595.27"/>
<polygon fill="black" stroke="black" stroke-width="2" points="256.09,-593.94 249.12,-585.96 249.6,-596.55 256.09,-593.94"/>
</a>
</g>
<g id="a_edge7&#45;label"><a xlink:href="/SYSTEM_LAUNCH/IDLE:request_text:/SYSTEM_LAUNCH/APPROACH_ITEM">
<text text-anchor="middle" x="292.89" y="-665.14" font-family="Times,serif" font-size="12.00">request_text</text>
</a>
</g>
</g>
<!-- /SYSTEM_LAUNCH/CONVERSATION&#45;&gt;/SYSTEM_LAUNCH/ESTOP -->
<g id="edge11" class="edge">
<title>/SYSTEM_LAUNCH/CONVERSATION&#45;&gt;/SYSTEM_LAUNCH/ESTOP</title>
<g id="a_edge11"><a xlink:href="/SYSTEM_LAUNCH/CONVERSATION:failed_3_times:/SYSTEM_LAUNCH/ESTOP">
<path fill="none" stroke="black" stroke-width="2" d="M133.94,-639.88C111.97,-609.33 70,-542.64 70,-479 70,-479 70,-479 70,-297 70,-240.59 96.28,-178.71 113.16,-144.8"/>
<polygon fill="black" stroke="black" stroke-width="2" points="116.42,-146.11 117.84,-135.61 110.18,-142.93 116.42,-146.11"/>
</a>
</g>
<g id="a_edge11&#45;label"><a xlink:href="/SYSTEM_LAUNCH/CONVERSATION:failed_3_times:/SYSTEM_LAUNCH/ESTOP">
<text text-anchor="middle" x="35" y="-287.4" font-family="Times,serif" font-size="12.00">failed_3_times</text>
</a>
</g>
</g>
<!-- /SYSTEM_LAUNCH/CONVERSATION&#45;&gt;/SYSTEM_LAUNCH/CONVERSATION -->
<g id="edge10" class="edge">
<title>/SYSTEM_LAUNCH/CONVERSATION&#45;&gt;/SYSTEM_LAUNCH/CONVERSATION</title>
<g id="a_edge10"><a xlink:href="/SYSTEM_LAUNCH/CONVERSATION:object_not_specified:/SYSTEM_LAUNCH/CONVERSATION">
<path fill="none" stroke="black" stroke-width="2" d="M191.76,-672.74C226.09,-678.16 260.99,-673.25 260.99,-658 260.99,-644.24 232.57,-638.9 201.8,-641.96"/>
<polygon fill="black" stroke="black" stroke-width="2" points="201.23,-638.51 191.76,-643.26 202.12,-645.45 201.23,-638.51"/>
</a>
</g>
<g id="a_edge10&#45;label"><a xlink:href="/SYSTEM_LAUNCH/CONVERSATION:object_not_specified:/SYSTEM_LAUNCH/CONVERSATION">
<text text-anchor="middle" x="240.86" y="-676.16" font-family="Times,serif" font-size="12.00">object_not_specified</text>
</a>
</g>
</g>
<!-- /SYSTEM_LAUNCH/CONVERSATION&#45;&gt;/SYSTEM_LAUNCH/APPROACH_ITEM -->
<g id="edge9" class="edge">
<title>/SYSTEM_LAUNCH/CONVERSATION&#45;&gt;/SYSTEM_LAUNCH/APPROACH_ITEM</title>
<g id="a_edge9"><a xlink:href="/SYSTEM_LAUNCH/CONVERSATION:object_specified:/SYSTEM_LAUNCH/APPROACH_ITEM">
<path fill="none" stroke="black" stroke-width="2" d="M164.68,-640.45C179.03,-627.01 199.45,-607.89 215.56,-592.81"/>
<polygon fill="black" stroke="black" stroke-width="2" points="218.17,-595.17 223.08,-585.78 213.39,-590.06 218.17,-595.17"/>
</a>
</g>
<g id="a_edge9&#45;label"><a xlink:href="/SYSTEM_LAUNCH/CONVERSATION:object_specified:/SYSTEM_LAUNCH/APPROACH_ITEM">
<text text-anchor="middle" x="155.57" y="-616.33" font-family="Times,serif" font-size="12.00">object_specified</text>
</a>
</g>
</g>
<!-- /SYSTEM_LAUNCH/APPROACH_ITEM&#45;&gt;/SYSTEM_LAUNCH/ESTOP -->
<g id="edge13" class="edge">
<title>/SYSTEM_LAUNCH/APPROACH_ITEM&#45;&gt;/SYSTEM_LAUNCH/ESTOP</title>
<g id="a_edge13"><a xlink:href="/SYSTEM_LAUNCH/APPROACH_ITEM:failed_goal_reached:/SYSTEM_LAUNCH/ESTOP">
<path fill="none" stroke="black" stroke-width="2" d="M216.91,-550.67C178.59,-522.53 108,-460.95 108,-389 108,-389 108,-389 108,-297 108,-249.37 108.37,-237.3 114,-190 115.74,-175.37 118.63,-159.2 121.24,-146"/>
<polygon fill="black" stroke="black" stroke-width="2" points="124.68,-146.62 123.24,-136.13 117.82,-145.23 124.68,-146.62"/>
</a>
</g>
<g id="a_edge13&#45;label"><a xlink:href="/SYSTEM_LAUNCH/APPROACH_ITEM:failed_goal_reached:/SYSTEM_LAUNCH/ESTOP">
<text text-anchor="middle" x="60" y="-380.9" font-family="Times,serif" font-size="12.00">failed_goal_reached</text>
</a>
</g>
</g>
<!-- /SYSTEM_LAUNCH/PICK_ITEM -->
<g id="node9" class="node">
<title>/SYSTEM_LAUNCH/PICK_ITEM</title>
<g id="a_node9"><a xlink:href="/SYSTEM_LAUNCH/PICK_ITEM" xlink:title="PICK_ITEM">
<ellipse fill="#ffffff" stroke="#000000" stroke-width="2" cx="241" cy="-478" rx="57.39" ry="18"/>
<text text-anchor="middle" x="241" y="-474.3" font-family="Times,serif" font-size="14.00">PICK_ITEM</text>
</a>
</g>
</g>
<!-- /SYSTEM_LAUNCH/APPROACH_ITEM&#45;&gt;/SYSTEM_LAUNCH/PICK_ITEM -->
<g id="edge12" class="edge">
<title>/SYSTEM_LAUNCH/APPROACH_ITEM&#45;&gt;/SYSTEM_LAUNCH/PICK_ITEM</title>
<g id="a_edge12"><a xlink:href="/SYSTEM_LAUNCH/APPROACH_ITEM:goal_reached:/SYSTEM_LAUNCH/PICK_ITEM">
<path fill="none" stroke="black" stroke-width="2" d="M241,-549.61C241,-537.24 241,-520.37 241,-506.22"/>
<polygon fill="black" stroke="black" stroke-width="2" points="244.5,-506.05 241,-496.05 237.5,-506.05 244.5,-506.05"/>
</a>
</g>
<g id="a_edge12&#45;label"><a xlink:href="/SYSTEM_LAUNCH/APPROACH_ITEM:goal_reached:/SYSTEM_LAUNCH/PICK_ITEM">
<text text-anchor="middle" x="209" y="-525.95" font-family="Times,serif" font-size="12.00">goal_reached</text>
</a>
</g>
</g>
<!-- /SYSTEM_LAUNCH/PICK_ITEM&#45;&gt;/SYSTEM_LAUNCH/ESTOP -->
<g id="edge16" class="edge">
<title>/SYSTEM_LAUNCH/PICK_ITEM&#45;&gt;/SYSTEM_LAUNCH/ESTOP</title>
<g id="a_edge16"><a xlink:href="/SYSTEM_LAUNCH/PICK_ITEM:failed_more_than_3_times:/SYSTEM_LAUNCH/ESTOP">
<path fill="none" stroke="black" stroke-width="2" d="M216.92,-461.4C199.46,-448.69 176.9,-429.12 165,-406 120.43,-319.44 121.55,-199.54 124.74,-146.32"/>
<polygon fill="black" stroke="black" stroke-width="2" points="128.25,-146.23 125.43,-136.02 121.27,-145.76 128.25,-146.23"/>
</a>
</g>
<g id="a_edge16&#45;label"><a xlink:href="/SYSTEM_LAUNCH/PICK_ITEM:failed_more_than_3_times:/SYSTEM_LAUNCH/ESTOP">
<text text-anchor="middle" x="132.83" y="-295.94" font-family="Times,serif" font-size="12.00">failed_more_than_3_times</text>
</a>
</g>
</g>
<!-- /SYSTEM_LAUNCH/PICK_ITEM&#45;&gt;/SYSTEM_LAUNCH/PICK_ITEM -->
<g id="edge15" class="edge">
<title>/SYSTEM_LAUNCH/PICK_ITEM&#45;&gt;/SYSTEM_LAUNCH/PICK_ITEM</title>
<g id="a_edge15"><a xlink:href="/SYSTEM_LAUNCH/PICK_ITEM:failed:/SYSTEM_LAUNCH/PICK_ITEM">
<path fill="none" stroke="black" stroke-width="2" d="M275.9,-492.4C304.49,-498.36 334.19,-493.56 334.19,-478 334.19,-464.27 311.05,-458.92 285.95,-461.95"/>
<polygon fill="black" stroke="black" stroke-width="2" points="285.2,-458.52 275.9,-463.6 286.33,-465.43 285.2,-458.52"/>
</a>
</g>
<g id="a_edge15&#45;label"><a xlink:href="/SYSTEM_LAUNCH/PICK_ITEM:failed:/SYSTEM_LAUNCH/PICK_ITEM">
<text text-anchor="middle" x="289.44" y="-495.81" font-family="Times,serif" font-size="12.00">failed</text>
</a>
</g>
</g>
<!-- /SYSTEM_LAUNCH/APPROACH_PERSON -->
<g id="node10" class="node">
<title>/SYSTEM_LAUNCH/APPROACH_PERSON</title>
<g id="a_node10"><a xlink:href="/SYSTEM_LAUNCH/APPROACH_PERSON" xlink:title="APPROACH_PERSON">
<ellipse fill="#ffffff" stroke="#000000" stroke-width="2" cx="279" cy="-388" rx="95.58" ry="18"/>
<text text-anchor="middle" x="279" y="-384.3" font-family="Times,serif" font-size="14.00">APPROACH_PERSON</text>
</a>
</g>
</g>
<!-- /SYSTEM_LAUNCH/PICK_ITEM&#45;&gt;/SYSTEM_LAUNCH/APPROACH_PERSON -->
<g id="edge14" class="edge">
<title>/SYSTEM_LAUNCH/PICK_ITEM&#45;&gt;/SYSTEM_LAUNCH/APPROACH_PERSON</title>
<g id="a_edge14"><a xlink:href="/SYSTEM_LAUNCH/PICK_ITEM:successfully_picked:/SYSTEM_LAUNCH/APPROACH_PERSON">
<path fill="none" stroke="black" stroke-width="2" d="M248.33,-460.03C253.76,-447.45 261.27,-430.06 267.5,-415.63"/>
<polygon fill="black" stroke="black" stroke-width="2" points="270.81,-416.78 271.57,-406.22 264.39,-414.01 270.81,-416.78"/>
</a>
</g>
<g id="a_edge14&#45;label"><a xlink:href="/SYSTEM_LAUNCH/PICK_ITEM:successfully_picked:/SYSTEM_LAUNCH/APPROACH_PERSON">
<text text-anchor="middle" x="212.47" y="-436.47" font-family="Times,serif" font-size="12.00">successfully_picked</text>
</a>
</g>
</g>
<!-- /SYSTEM_LAUNCH/APPROACH_PERSON&#45;&gt;/SYSTEM_LAUNCH/ESTOP -->
<g id="edge18" class="edge">
<title>/SYSTEM_LAUNCH/APPROACH_PERSON&#45;&gt;/SYSTEM_LAUNCH/ESTOP</title>
<g id="a_edge18"><a xlink:href="/SYSTEM_LAUNCH/APPROACH_PERSON:failed_goal_reached:/SYSTEM_LAUNCH/ESTOP">
<path fill="none" stroke="black" stroke-width="2" d="M257.77,-370.2C242.06,-356.86 221.03,-337.03 207,-316 173.46,-265.75 178.76,-245.96 156,-190 150.01,-175.26 143.29,-158.8 137.83,-145.45"/>
<polygon fill="black" stroke="black" stroke-width="2" points="140.95,-143.85 133.93,-135.92 134.48,-146.5 140.95,-143.85"/>
</a>
</g>
<g id="a_edge18&#45;label"><a xlink:href="/SYSTEM_LAUNCH/APPROACH_PERSON:failed_goal_reached:/SYSTEM_LAUNCH/ESTOP">
<text text-anchor="middle" x="130.69" y="-262.38" font-family="Times,serif" font-size="12.00">failed_goal_reached</text>
</a>
</g>
</g>
<!-- /SYSTEM_LAUNCH/CONFIRM_MISSION -->
<g id="node11" class="node">
<title>/SYSTEM_LAUNCH/CONFIRM_MISSION</title>
<g id="a_node11"><a xlink:href="/SYSTEM_LAUNCH/CONFIRM_MISSION" xlink:title="CONFIRM_MISSION">
<ellipse fill="#ffffff" stroke="#000000" stroke-width="2" cx="317" cy="-298" rx="92.08" ry="18"/>
<text text-anchor="middle" x="317" y="-294.3" font-family="Times,serif" font-size="14.00">CONFIRM_MISSION</text>
</a>
</g>
</g>
<!-- /SYSTEM_LAUNCH/APPROACH_PERSON&#45;&gt;/SYSTEM_LAUNCH/CONFIRM_MISSION -->
<g id="edge17" class="edge">
<title>/SYSTEM_LAUNCH/APPROACH_PERSON&#45;&gt;/SYSTEM_LAUNCH/CONFIRM_MISSION</title>
<g id="a_edge17"><a xlink:href="/SYSTEM_LAUNCH/APPROACH_PERSON:goal_reached:/SYSTEM_LAUNCH/CONFIRM_MISSION">
<path fill="none" stroke="black" stroke-width="2" d="M286.33,-370.03C291.76,-357.45 299.27,-340.06 305.5,-325.63"/>
<polygon fill="black" stroke="black" stroke-width="2" points="308.81,-326.78 309.57,-316.22 302.39,-324.01 308.81,-326.78"/>
</a>
</g>
<g id="a_edge17&#45;label"><a xlink:href="/SYSTEM_LAUNCH/APPROACH_PERSON:goal_reached:/SYSTEM_LAUNCH/CONFIRM_MISSION">
<text text-anchor="middle" x="265.97" y="-346.47" font-family="Times,serif" font-size="12.00">goal_reached</text>
</a>
</g>
</g>
<!-- /SYSTEM_LAUNCH/CONFIRM_MISSION&#45;&gt;/SYSTEM_LAUNCH/APPROACH_ITEM -->
<g id="edge20" class="edge">
<title>/SYSTEM_LAUNCH/CONFIRM_MISSION&#45;&gt;/SYSTEM_LAUNCH/APPROACH_ITEM</title>
<g id="a_edge20"><a xlink:href="/SYSTEM_LAUNCH/CONFIRM_MISSION:mission_not_confirmed:/SYSTEM_LAUNCH/APPROACH_ITEM">
<path fill="none" stroke="black" stroke-width="2" d="M343.85,-315.51C361.46,-328.03 383,-346.98 393,-370 399.37,-384.68 397.58,-390.67 393,-406 374.49,-467.98 314.64,-518.04 275.8,-545.07"/>
<polygon fill="black" stroke="black" stroke-width="2" points="273.67,-542.29 267.37,-550.81 277.61,-548.08 273.67,-542.29"/>
</a>
</g>
<g id="a_edge20&#45;label"><a xlink:href="/SYSTEM_LAUNCH/CONFIRM_MISSION:mission_not_confirmed:/SYSTEM_LAUNCH/APPROACH_ITEM">
<text text-anchor="middle" x="411.13" y="-477.11" font-family="Times,serif" font-size="12.00">mission_not_confirmed</text>
</a>
</g>
</g>
<!-- /SYSTEM_LAUNCH/PLACE_ITEM -->
<g id="node12" class="node">
<title>/SYSTEM_LAUNCH/PLACE_ITEM</title>
<g id="a_node12"><a xlink:href="/SYSTEM_LAUNCH/PLACE_ITEM" xlink:title="PLACE_ITEM">
<ellipse fill="#ffffff" stroke="#000000" stroke-width="2" cx="317" cy="-208" rx="64.99" ry="18"/>
<text text-anchor="middle" x="317" y="-204.3" font-family="Times,serif" font-size="14.00">PLACE_ITEM</text>
</a>
</g>
</g>
<!-- /SYSTEM_LAUNCH/CONFIRM_MISSION&#45;&gt;/SYSTEM_LAUNCH/PLACE_ITEM -->
<g id="edge19" class="edge">
<title>/SYSTEM_LAUNCH/CONFIRM_MISSION&#45;&gt;/SYSTEM_LAUNCH/PLACE_ITEM</title>
<g id="a_edge19"><a xlink:href="/SYSTEM_LAUNCH/CONFIRM_MISSION:mission_confirmed:/SYSTEM_LAUNCH/PLACE_ITEM">
<path fill="none" stroke="black" stroke-width="2" d="M317,-279.61C317,-267.24 317,-250.37 317,-236.22"/>
<polygon fill="black" stroke="black" stroke-width="2" points="320.5,-236.05 317,-226.05 313.5,-236.05 320.5,-236.05"/>
</a>
</g>
<g id="a_edge19&#45;label"><a xlink:href="/SYSTEM_LAUNCH/CONFIRM_MISSION:mission_confirmed:/SYSTEM_LAUNCH/PLACE_ITEM">
<text text-anchor="middle" x="271.5" y="-255.95" font-family="Times,serif" font-size="12.00">mission_confirmed</text>
</a>
</g>
</g>
<!-- /SYSTEM_LAUNCH/PLACE_ITEM&#45;&gt;/SYSTEM_LAUNCH/ESTOP -->
<g id="edge23" class="edge">
<title>/SYSTEM_LAUNCH/PLACE_ITEM&#45;&gt;/SYSTEM_LAUNCH/ESTOP</title>
<g id="a_edge23"><a xlink:href="/SYSTEM_LAUNCH/PLACE_ITEM:failed_more_than_3_times:/SYSTEM_LAUNCH/ESTOP">
<path fill="none" stroke="black" stroke-width="2" d="M285.2,-192.27C251.3,-176.57 197.77,-151.78 162.52,-135.45"/>
<polygon fill="black" stroke="black" stroke-width="2" points="163.64,-132.11 153.09,-131.08 160.69,-138.46 163.64,-132.11"/>
</a>
</g>
<g id="a_edge23&#45;label"><a xlink:href="/SYSTEM_LAUNCH/PLACE_ITEM:failed_more_than_3_times:/SYSTEM_LAUNCH/ESTOP">
<text text-anchor="middle" x="156.2" y="-165.1" font-family="Times,serif" font-size="12.00">failed_more_than_3_times</text>
</a>
</g>
</g>
<!-- /SYSTEM_LAUNCH/PLACE_ITEM&#45;&gt;/SYSTEM_LAUNCH/IDLE -->
<g id="edge21" class="edge">
<title>/SYSTEM_LAUNCH/PLACE_ITEM&#45;&gt;/SYSTEM_LAUNCH/IDLE</title>
<g id="a_edge21"><a xlink:href="/SYSTEM_LAUNCH/PLACE_ITEM:successfully_placed:/SYSTEM_LAUNCH/IDLE">
<path fill="none" stroke="black" stroke-width="2" d="M352.62,-223.15C377.26,-234.77 408.78,-253.63 427,-280 454.65,-320.02 450,-338.36 450,-387 450,-569 450,-569 450,-569 450,-667.63 317.16,-718.35 250.38,-737.61"/>
<polygon fill="black" stroke="black" stroke-width="2" points="249.34,-734.27 240.65,-740.33 251.22,-741.01 249.34,-734.27"/>
</a>
</g>
<g id="a_edge21&#45;label"><a xlink:href="/SYSTEM_LAUNCH/PLACE_ITEM:successfully_placed:/SYSTEM_LAUNCH/IDLE">
<text text-anchor="middle" x="403" y="-549.65" font-family="Times,serif" font-size="12.00">successfully_placed</text>
</a>
</g>
</g>
<!-- /SYSTEM_LAUNCH/PLACE_ITEM&#45;&gt;/SYSTEM_LAUNCH/PLACE_ITEM -->
<g id="edge22" class="edge">
<title>/SYSTEM_LAUNCH/PLACE_ITEM&#45;&gt;/SYSTEM_LAUNCH/PLACE_ITEM</title>
<g id="a_edge22"><a xlink:href="/SYSTEM_LAUNCH/PLACE_ITEM:failed:/SYSTEM_LAUNCH/PLACE_ITEM">
<path fill="none" stroke="black" stroke-width="2" d="M355.6,-222.55C386.35,-228.28 417.99,-223.42 417.99,-208 417.99,-194.26 392.89,-188.91 365.68,-191.95"/>
<polygon fill="black" stroke="black" stroke-width="2" points="364.98,-188.52 355.6,-193.45 366.01,-195.44 364.98,-188.52"/>
</a>
</g>
<g id="a_edge22&#45;label"><a xlink:href="/SYSTEM_LAUNCH/PLACE_ITEM:failed:/SYSTEM_LAUNCH/PLACE_ITEM">
<text text-anchor="middle" x="369.15" y="-225.96" font-family="Times,serif" font-size="12.00">failed</text>
</a>
</g>
</g>
</g>
</svg>
